<?xml version="1.0" encoding="utf-8"?>
<!-- Generator: Adobe Illustrator 16.0.0, SVG Export Plug-In . SVG Version: 6.00 Build 0)  -->
<!DOCTYPE svg PUBLIC "-//W3C//DTD SVG 1.1//EN" "http://www.w3.org/Graphics/SVG/1.1/DTD/svg11.dtd">
<svg version="1.1" id="Layer_4" xmlns="http://www.w3.org/2000/svg" xmlns:xlink="http://www.w3.org/1999/xlink" x="0px" y="0px"
	 width="1133.86px" height="1133.86px" viewBox="0 0 1133.86 1133.86" enable-background="new 0 0 1133.86 1133.86"
	 xml:space="preserve">
<g>
	<path d="M457.39,690.917c1.782-0.911,3.13-1.919,4.045-3.023c1.638-1.967,2.457-4.57,2.457-7.809c0-3.143-0.812-5.842-2.435-8.098
		c-2.697-3.671-7.279-5.554-13.748-5.649h-25.635v53.045h23.901c2.695,0,5.193-0.239,7.495-0.72c2.302-0.479,4.3-1.367,5.994-2.663
		c1.502-1.127,2.755-2.52,3.757-4.175c1.574-2.495,2.362-5.313,2.362-8.457c0-3.046-0.689-5.638-2.066-7.772
		C462.14,693.46,460.097,691.901,457.39,690.917z M432.655,675.551h11.539c2.541,0,4.63,0.275,6.269,0.827
		c1.899,0.792,2.849,2.424,2.849,4.895c0,2.231-0.718,3.785-2.155,4.66c-1.437,0.876-3.306,1.313-5.609,1.313h-12.893V675.551z
		 M450.905,709.234c-1.281,0.624-3.072,0.936-5.372,0.936h-12.878v-14.143h13.056c2.277,0.023,4.043,0.323,5.301,0.899
		c2.253,1.032,3.379,2.928,3.379,5.686C454.392,705.876,453.229,708.083,450.905,709.234z"/>
	<path d="M504.72,716.684c-0.336-0.479-0.54-1.391-0.612-2.734c-0.048-1.775-0.072-3.287-0.072-4.535v-17.993
		c0-4.727-1.674-7.941-5.023-9.645c-3.35-1.703-7.181-2.556-11.494-2.556c-6.626,0-11.301,1.728-14.024,5.183
		c-1.711,2.207-2.675,5.026-2.891,8.457h9.896c0.243-1.512,0.729-2.711,1.459-3.599c1.021-1.199,2.761-1.8,5.217-1.8
		c2.188,0,3.848,0.306,4.979,0.918c1.131,0.611,1.696,1.722,1.696,3.329c0,1.319-0.737,2.291-2.211,2.915
		c-0.822,0.359-2.187,0.66-4.096,0.899l-3.517,0.432c-3.988,0.504-7.009,1.344-9.064,2.52c-3.746,2.159-5.619,5.649-5.619,10.472
		c0,3.72,1.164,6.592,3.493,8.619c2.329,2.027,5.278,3.041,8.85,3.041c2.799,0,5.309-0.636,7.529-1.907
		c1.858-1.08,3.499-2.387,4.923-3.923c0.072,0.888,0.167,1.68,0.288,2.375c0.12,0.696,0.335,1.439,0.647,2.231h11.156v-1.512
		C505.56,717.56,505.056,717.164,504.72,716.684z M493.816,704.124c-0.073,3.432-1.053,5.794-2.941,7.09
		c-1.888,1.295-3.953,1.943-6.194,1.943c-1.413,0-2.613-0.39-3.6-1.17c-0.987-0.779-1.48-2.045-1.48-3.797
		c0-1.967,0.808-3.418,2.423-4.354c0.954-0.551,2.526-1.02,4.714-1.403l2.334-0.432c1.167-0.216,2.085-0.45,2.754-0.702
		c0.668-0.252,1.332-0.581,1.988-0.989V704.124z"/>
	<path d="M532.017,679.221c-3.071,0-5.566,0.805-7.485,2.411c-1.176,0.96-2.555,2.748-4.139,5.362v-6.838h-9.789v39.227h10.329
		v-18.749c0-3.143,0.396-5.471,1.188-6.981c1.415-2.688,4.186-4.031,8.313-4.031c0.312,0,0.72,0.013,1.224,0.036
		c0.504,0.024,1.08,0.072,1.728,0.145v-10.509c-0.456-0.023-0.75-0.042-0.882-0.054
		C532.371,679.228,532.209,679.221,532.017,679.221z"/>
	<path d="M576.297,707.738c-0.959,1.769-2.138,3.305-3.538,4.606s-3.034,2.321-4.901,3.059c-1.868,0.736-3.931,1.105-6.191,1.105
		c-3.637,0-6.658-0.688-9.065-2.064c-2.408-1.375-4.325-3.181-5.749-5.417c-1.426-2.235-2.445-4.777-3.059-7.628
		c-0.615-2.849-0.921-5.749-0.921-8.696c0-3.145,0.356-6.129,1.069-8.955c0.711-2.825,1.817-5.318,3.316-7.48
		c1.499-2.162,3.402-3.881,5.712-5.159c2.309-1.277,5.06-1.917,8.255-1.917c4.52,0,8.18,0.959,10.981,2.875s4.717,5.135,5.749,9.654
		h5.159c-0.442-2.751-1.242-5.17-2.396-7.259c-1.155-2.088-2.629-3.845-4.422-5.271c-1.795-1.424-3.858-2.493-6.191-3.206
		c-2.333-0.711-4.852-1.068-7.554-1.068c-3.538,0-6.806,0.505-9.803,1.511c-2.998,1.008-5.601,2.629-7.812,4.864
		c-2.211,2.236-3.943,5.123-5.196,8.66c-1.253,3.538-1.879,7.838-1.879,12.898c0,3.783,0.417,7.358,1.253,10.724
		c0.835,3.365,2.174,6.326,4.017,8.881c1.842,2.555,4.212,4.582,7.112,6.08c2.899,1.498,6.387,2.248,10.466,2.248
		c3.538,0,6.621-0.505,9.249-1.511c2.628-1.007,4.864-2.37,6.707-4.091c1.843-1.719,3.328-3.722,4.459-6.007
		c1.13-2.284,1.99-4.704,2.579-7.26h-5.232C577.979,704.028,577.255,705.969,576.297,707.738z"/>
	<path d="M617.079,686.032c-1.474-1.793-3.316-3.217-5.527-4.274c-2.211-1.056-4.816-1.584-7.812-1.584
		c-2.948,0-5.527,0.528-7.739,1.584c-2.211,1.058-4.053,2.494-5.527,4.312c-1.474,1.818-2.579,3.943-3.316,6.375
		c-0.737,2.433-1.105,5.049-1.105,7.85c0,3.342,0.466,6.265,1.4,8.771c0.933,2.506,2.198,4.595,3.796,6.265
		c1.596,1.671,3.464,2.924,5.601,3.759c2.138,0.835,4.434,1.277,6.892,1.327c2.653,0,5.072-0.479,7.26-1.438
		c2.186-0.958,4.054-2.321,5.602-4.091c1.547-1.769,2.738-3.881,3.574-6.338c0.835-2.457,1.253-5.208,1.253-8.255
		c0-2.801-0.357-5.429-1.068-7.886C619.646,689.951,618.554,687.827,617.079,686.032z M615.974,706.264
		c-0.492,1.916-1.253,3.637-2.285,5.159c-1.031,1.523-2.371,2.74-4.017,3.648c-1.646,0.91-3.624,1.363-5.933,1.363
		c-2.113,0-3.98-0.393-5.602-1.179s-2.974-1.892-4.054-3.317c-1.081-1.424-1.904-3.132-2.469-5.122
		c-0.565-1.989-0.848-4.164-0.848-6.522c0-2.063,0.245-4.065,0.737-6.007c0.49-1.94,1.253-3.659,2.284-5.159
		c1.032-1.498,2.37-2.701,4.017-3.611c1.646-0.908,3.623-1.363,5.934-1.363c2.358,0,4.349,0.418,5.97,1.253
		c1.621,0.836,2.948,1.979,3.979,3.427c1.032,1.45,1.793,3.158,2.285,5.123c0.49,1.966,0.737,4.078,0.737,6.338
		C616.711,702.357,616.464,704.348,615.974,706.264z"/>
	<path d="M656.73,687.322c-1.426-2.358-3.379-4.139-5.859-5.343c-2.481-1.204-5.073-1.806-7.775-1.806
		c-2.899,0-5.417,0.553-7.555,1.658c-2.137,1.105-3.906,2.579-5.307,4.422c-1.399,1.843-2.444,3.992-3.132,6.449
		c-0.688,2.457-1.032,5.012-1.032,7.665c0,2.8,0.319,5.43,0.958,7.886c0.639,2.457,1.659,4.582,3.06,6.375
		c1.399,1.794,3.181,3.206,5.343,4.238c2.162,1.031,4.791,1.548,7.887,1.548c1.228,0,2.48-0.173,3.759-0.517
		c1.276-0.344,2.517-0.835,3.722-1.474c1.203-0.638,2.309-1.438,3.316-2.396c1.007-0.958,1.83-2.075,2.469-3.354h0.147v6.707h4.422
		v-53.065h-4.422V687.322z M655.883,706.596c-0.565,1.99-1.389,3.71-2.469,5.159c-1.081,1.449-2.433,2.592-4.054,3.427
		c-1.621,0.836-3.464,1.253-5.527,1.253c-1.868,0-3.587-0.331-5.159-0.995c-1.573-0.663-2.948-1.633-4.127-2.911
		c-1.18-1.277-2.101-2.837-2.765-4.68c-0.663-1.843-0.995-3.968-0.995-6.375c-0.099-2.407,0.099-4.655,0.59-6.744
		c0.491-2.088,1.277-3.918,2.358-5.491c1.08-1.571,2.457-2.812,4.128-3.722c1.67-0.908,3.659-1.363,5.97-1.363
		c2.014,0,3.819,0.431,5.417,1.29c1.596,0.86,2.948,2.015,4.054,3.464s1.953,3.145,2.543,5.085c0.589,1.941,0.884,3.993,0.884,6.154
		C656.73,702.457,656.447,704.605,655.883,706.596z"/>
	<path d="M690.992,714.15c-2.063,1.523-4.546,2.284-7.444,2.284c-2.113,0-3.979-0.405-5.602-1.216
		c-1.621-0.811-2.96-1.891-4.017-3.243c-1.057-1.351-1.854-2.948-2.396-4.79c-0.541-1.843-0.811-3.796-0.811-5.859h29.629
		c0.048-6.879-1.426-12.124-4.423-15.735s-7.125-5.417-12.382-5.417c-2.752,0-5.208,0.528-7.37,1.584
		c-2.162,1.058-3.992,2.506-5.49,4.349c-1.5,1.843-2.653,3.992-3.465,6.449c-0.811,2.457-1.216,5.085-1.216,7.886
		s0.344,5.417,1.032,7.85c0.688,2.432,1.743,4.545,3.169,6.338c1.425,1.794,3.243,3.206,5.454,4.238
		c2.211,1.031,4.839,1.548,7.886,1.548c2.407,0,4.521-0.32,6.339-0.959c1.817-0.638,3.39-1.534,4.717-2.689
		c1.326-1.154,2.432-2.506,3.316-4.054s1.596-3.23,2.138-5.049h-4.938C694.431,710.465,693.056,712.628,690.992,714.15z
		 M671.977,692.481c0.639-1.621,1.486-3.046,2.543-4.274c1.056-1.228,2.333-2.211,3.833-2.948c1.498-0.737,3.229-1.105,5.195-1.105
		c1.965,0,3.71,0.357,5.233,1.068c1.522,0.713,2.788,1.671,3.795,2.875s1.77,2.629,2.285,4.274c0.516,1.646,0.773,3.403,0.773,5.27
		h-24.911C670.92,695.823,671.338,694.104,671.977,692.481z"/>
</g>
<g>
	<g>
		<path d="M555,449.722h-8v195.129c2.669,0,5.341,0,8,0V449.722z"/>
		<path d="M496.379,644.851c2.563,0,5.362,0,8.371,0V449.722h-8.371V644.851z"/>
		<path d="M525.75,449.722H522v195.129c1.237,0,2.487,0,3.75,0V449.722z"/>
		<path d="M538,449.722h-7.25v195.129c2.39,0,4.81,0,7.25,0V449.722z"/>
		<path d="M517,449.722h-5.25v195.129c1.708,0,3.46,0,5.25,0V449.722z"/>
		<path d="M621.75,606.25v-16.772h-3.102c-0.894,0-1.757-0.123-2.586-0.332v17.104H621.75z"/>
		<path d="M629.75,467.75v16.772h5.935c0.446,0,0.884,0.037,1.315,0.09V467.75H629.75z"/>
		<path d="M621.75,484.522V467.75h-5.688v17.104c0.829-0.209,1.692-0.332,2.586-0.332H621.75z"/>
		<path d="M637,589.387c-0.432,0.054-0.869,0.091-1.315,0.091h-5.935v16.772H637V589.387z"/>
		<path d="M605.178,644.851c3.933,0,6.975,0,8.885,0v-15.233c-2.217-2.275-4.523-4.617-5.98-6.093V606.25h5.98v-17.831
			c-3.535-1.709-5.98-5.318-5.98-9.507v-83.823c0-4.19,2.445-7.8,5.98-9.509V467.75h-5.98v-14.502c0-1.735-1.255-3.169-2.904-3.463
			V644.851z"/>
		<path d="M651.75,468.161c-1.09-0.259-2.222-0.411-3.391-0.411H642v18.883c2.575,1.927,4.25,4.992,4.25,8.456v83.823
			c0,3.462-1.675,6.527-4.25,8.454v18.884h6.359c1.169,0,2.301-0.151,3.391-0.411V468.161z"/>
		<path d="M616.062,631.679v13.172c0.135,0,0.237,0,0.263,0c5.25,0,7-5.351,3.125-9.601
			C618.688,634.414,617.46,633.125,616.062,631.679z"/>
		<path d="M569.25,449.722h-10v195.129c3.382,0,6.726,0,10,0V449.722z"/>
		<path d="M656.75,470.404v133.191c3.775-2.648,6.25-7.026,6.25-11.986V482.391C663,477.429,660.525,473.052,656.75,470.404z"/>
		<path d="M482.553,629.84c-2.102,2.159-4.097,4.231-5.171,5.41c-3.875,4.25-2.125,9.601,3.125,9.601c0.086,0,0.81,0,2.046,0V629.84
			z"/>
		<path d="M593.957,449.722h-8.289v195.129c2.906,0,5.681,0,8.289,0V449.722z"/>
		<path d="M486.572,644.851c1.8,0,3.964,0,6.424,0V449.722h-0.72c-1.947,0-3.526,1.578-3.526,3.526v170.277
			c-0.602,0.609-1.353,1.371-2.178,2.211V644.851z"/>
		<path d="M583.207,449.722h-4.957v195.129c1.686,0,3.338,0,4.957,0V449.722z"/>
		<path d="M601.947,449.722h-5.529v195.129c1.958,0,3.806,0,5.529,0V449.722z"/>
	</g>
	<path d="M596.25,413c-20-27-50.75-11.75-55-5c-11.75-8.75-28.25-3.25-31,7.5c-37.5-12.75-49.934,17.771-50.75,32.25
		c-0.85,15.08,5.885,33.76,21.88,38.122v-32.624c0-6.008,4.888-10.896,10.896-10.896h37.981h0.006l0,0.005
		C537.167,444.167,537,466,556.75,470c15.452,3.129,27-2.5,30.75-6.5c22,13.5,35.316-5.528,38.5-14.5
		C628.75,441.25,629,411.75,596.25,413z"/>
</g>
</svg>
