<?xml version="1.0" encoding="UTF-8" standalone="no"?>
<!-- Generator: Adobe Illustrator 13.0.0, SVG Export Plug-In . SVG Version: 6.00 Build 14948)  -->

<svg
   xmlns:dc="http://purl.org/dc/elements/1.1/"
   xmlns:cc="http://creativecommons.org/ns#"
   xmlns:rdf="http://www.w3.org/1999/02/22-rdf-syntax-ns#"
   xmlns:svg="http://www.w3.org/2000/svg"
   xmlns="http://www.w3.org/2000/svg"
   xmlns:sodipodi="http://sodipodi.sourceforge.net/DTD/sodipodi-0.dtd"
   xmlns:inkscape="http://www.inkscape.org/namespaces/inkscape"
   version="1.1"
   id="Layer_1"
   x="0px"
   y="0px"
   width="500px"
   height="500px"
   viewBox="0 0 500 500"
   enable-background="new 0 0 500 500"
   xml:space="preserve"
   inkscape:version="0.91 r13725"
   sodipodi:docname="android.svg"><metadata
     id="metadata23"><rdf:RDF><cc:Work
         rdf:about=""><dc:format>image/svg+xml</dc:format><dc:type
           rdf:resource="http://purl.org/dc/dcmitype/StillImage" /></cc:Work></rdf:RDF></metadata><defs
     id="defs21" /><sodipodi:namedview
     pagecolor="#ffffff"
     bordercolor="#666666"
     borderopacity="1"
     objecttolerance="10"
     gridtolerance="10"
     guidetolerance="10"
     inkscape:pageopacity="0"
     inkscape:pageshadow="2"
     inkscape:window-width="1920"
     inkscape:window-height="1018"
     id="namedview19"
     showgrid="false"
     inkscape:zoom="1.3350176"
     inkscape:cx="315.81497"
     inkscape:cy="226.14745"
     inkscape:window-x="-8"
     inkscape:window-y="-8"
     inkscape:window-maximized="1"
     inkscape:current-layer="g4356" /><g
     id="max_width__x2F__height"
     display="none"><path
       display="inline"
       d="M499.001,1v498H1V1H499.001 M500.001,0H0v500h500.001V0L500.001,0z"
       id="path4" /></g><path
     style="fill:#ff0000;fill-rule:evenodd;stroke:#ff0000;stroke-width:1px;stroke-linecap:butt;stroke-linejoin:miter;stroke-opacity:1"
     d="M 135.57874,163.67485 79.399702,442.32286 243.44248,417.60408 411.97959,440.82475 351.30623,162.92579 Z"
     id="path3359"
     inkscape:connector-curvature="0" /><g
     id="androd"
     transform="translate(-6.7414844,-14.232022)"><path
       d="m 301.314,83.298 20.159,-29.272 c 1.197,-1.74 0.899,-4.024 -0.666,-5.104 -1.563,-1.074 -3.805,-0.543 -4.993,1.199 L 294.863,80.53 c -13.807,-5.439 -29.139,-8.47 -45.299,-8.47 -16.16,0 -31.496,3.028 -45.302,8.47 L 183.314,50.12 c -1.201,-1.74 -3.439,-2.273 -5.003,-1.199 -1.564,1.077 -1.861,3.362 -0.664,5.104 l 20.166,29.272 c -32.063,14.916 -54.548,43.26 -57.413,76.34 l 218.316,0 c -2.855,-33.08 -25.341,-61.423 -57.402,-76.339"
       id="path7"
       inkscape:connector-curvature="0"
       style="fill:#9fbf3b" /><path
       d="m 203.956,129.438 c -6.673,0 -12.08,-5.407 -12.08,-12.079 0,-6.671 5.404,-12.08 12.08,-12.08 6.668,0 12.073,5.407 12.073,12.08 0.001,6.671 -5.405,12.079 -12.073,12.079"
       id="path9"
       inkscape:connector-curvature="0"
       style="fill:#ffffff" /><path
       d="m 295.161,129.438 c -6.668,0 -12.074,-5.407 -12.074,-12.079 0,-6.673 5.406,-12.08 12.074,-12.08 6.675,0 12.079,5.409 12.079,12.08 0,6.671 -5.406,12.079 -12.079,12.079"
       id="path11"
       inkscape:connector-curvature="0"
       style="fill:#ffffff" /><path
       d="m 92.208264,299.30215 c -4.80283,12.56325 -18.881621,18.85468 -31.445809,14.05149 l 0,0 C 48.199201,308.55082 41.907775,294.47202 46.710603,281.90877 l 35.175982,-92.01346 c 4.802829,-12.56325 18.881615,-18.85468 31.444865,-14.05185 l 0,0 c 12.56419,4.80318 18.85562,18.88198 14.05279,31.44523 l -35.175976,92.01346 z"
       id="path13"
       inkscape:connector-curvature="0"
       style="fill:#9fbf3b" /><path
       d="m 140.396,175.489 0,177.915 c 0,10.566 8.566,19.133 19.135,19.133 l 22.633,0 0,54.744 c 0,13.451 10.903,24.354 24.354,24.354 13.451,0 24.355,-10.903 24.355,-24.354 l 0,-54.744 37.371,0 0,54.744 c 0,13.451 10.902,24.354 24.354,24.354 13.452,0 24.354,-10.903 24.354,-24.354 l 0,-54.744 22.633,0 c 10.569,0 19.137,-8.562 19.137,-19.133 l 0,-177.915 -218.326,0 z"
       id="path15"
       inkscape:connector-curvature="0"
       style="fill:#9fbf3b" /><path
       d="m 460.48903,97.508418 c 5.78702,-12.14137 0.63641,-26.6756 -11.50586,-32.46305 l 0,0 c -12.14137,-5.78703 -26.67603,-0.63552 -32.46306,11.50585 L 374.13587,165.4748 c -5.78702,12.14137 -0.63551,26.67603 11.50586,32.46305 l 0,0 c 12.14228,5.78746 26.67603,0.63552 32.46306,-11.50585 l 42.38424,-88.923582 z"
       id="path17"
       inkscape:connector-curvature="0"
       style="fill:#9fbf3b"
       inkscape:transform-center-x="3.745269"
       inkscape:transform-center-y="61.422411" /></g><g
     id="g4356"
     transform="matrix(0.99997114,-0.00759695,0.00759695,0.99997114,567.96409,195.58862)"><path
       sodipodi:type="star"
       style="fill:#48b6af;stroke:#ffd900;stroke-opacity:0.3251029;fill-opacity:1"
       id="path4319"
       sodipodi:sides="5"
       sodipodi:cx="-327.27975"
       sodipodi:cy="56.235809"
       sodipodi:r1="103.7595"
       sodipodi:r2="83.943199"
       sodipodi:arg1="2.8335399"
       sodipodi:arg2="3.4618584"
       inkscape:flatsided="true"
       inkscape:rounded="0"
       inkscape:randomized="0"
       d="m -426.15486,87.696066 38.40054,-115.774313 121.97433,0.744847 36.98375,116.234654 -99.11712,71.092116 z"
       inkscape:transform-center-x="0.19579373"
       inkscape:transform-center-y="9.7217548" /><g
       transform="matrix(2.1260606,0.05744861,-0.05744861,2.1260606,-415.44787,-47.257625)"
       id="g4437"><g
         id="g4439"><radialGradient
           gradientUnits="userSpaceOnUse"
           r="80.755798"
           cy="9.0150995"
           cx="23.305201"
           id="SVGID_3_"><stop
             id="stop4442"
             style="stop-color:#FFCE4E"
             offset="0" /><stop
             id="stop4444"
             style="stop-color:#F5C337"
             offset="1" /></radialGradient><path
           inkscape:connector-curvature="0"
           style="fill:url(#SVGID_3_)"
           id="path4446"
           d="m 49.672,53.832 -15.492,25.734 7.824,0 c 1.853,0 4.152,-1.299 5.108,-2.894 l 6.591,-10.968 c 0.778,-1.606 0.751,-3.947 -0.138,-5.43 l -3.893,-6.442 z" /><radialGradient
           gradientUnits="userSpaceOnUse"
           r="80.752098"
           cy="9.0176001"
           cx="23.306601"
           id="SVGID_4_"><stop
             id="stop4449"
             style="stop-color:#0DA960"
             offset="0" /><stop
             id="stop4451"
             style="stop-color:#05924B"
             offset="1" /></radialGradient><path
           inkscape:connector-curvature="0"
           style="fill:url(#SVGID_4_)"
           id="path4453"
           d="m 42.591,42.11 c 0.955,1.588 0.955,4.191 0,5.786 L 25.19,76.99 c -0.672,1.437 0.026,2.576 1.753,2.576 l 7.236,0 15.492,-25.734 -7.08,-11.722 z" /><radialGradient
           gradientUnits="userSpaceOnUse"
           r="80.752502"
           cy="9.0165997"
           cx="23.305201"
           id="SVGID_5_"><stop
             id="stop4456"
             style="stop-color:#577EC0"
             offset="0" /><stop
             id="stop4458"
             style="stop-color:#557EBF"
             offset="1" /></radialGradient><path
           inkscape:connector-curvature="0"
           style="fill:url(#SVGID_5_)"
           id="path4460"
           d="m 26.943,10.434 c -1.858,0 -2.597,1.305 -1.641,2.894 l 28.263,46.948 c 0.889,1.482 0.916,3.823 0.138,5.43 l 6.87,-11.434 -26.39,-43.838 -7.24,0 z" /><radialGradient
           gradientUnits="userSpaceOnUse"
           r="80.750603"
           cy="9.0165997"
           cx="23.3076"
           id="SVGID_6_"><stop
             id="stop4463"
             style="stop-color:#E04B3F"
             offset="0" /><stop
             id="stop4465"
             style="stop-color:#CD382D"
             offset="1" /></radialGradient><path
           inkscape:connector-curvature="0"
           style="fill:url(#SVGID_6_)"
           id="path4467"
           d="M 64.399,42.11 47.112,13.327 c -0.956,-1.589 -3.256,-2.894 -5.108,-2.894 l -7.82,0 26.39,43.838 3.826,-6.375 c 0.955,-1.594 0.955,-4.198 -0.001,-5.786 z" /><linearGradient
           y2="53.9077"
           x2="38.307201"
           y1="53.9077"
           x1="57.7617"
           gradientUnits="userSpaceOnUse"
           id="SVGID_7_"><stop
             id="stop4470"
             style="stop-color:#231F20;stop-opacity:0.2"
             offset="0" /><stop
             id="stop4472"
             style="stop-color:#F2F2F2;stop-opacity:0.25"
             offset="1" /></linearGradient><path
           inkscape:connector-curvature="0"
           style="fill:url(#SVGID_7_)"
           id="path4474"
           d="M 53.565,60.275 42.591,42.11 c 0.955,1.588 0.955,4.191 0,5.786 l -3.863,6.434 14.976,11.375 c 0.777,-1.606 0.75,-3.947 -0.139,-5.43 z" /></g><radialGradient
         gradientUnits="userSpaceOnUse"
         r="28.2798"
         cy="45"
         cx="45"
         id="SVGID_8_"><stop
           id="stop4477"
           style="stop-color:#FFFFFF;stop-opacity:0.1"
           offset="0" /><stop
           id="stop4479"
           style="stop-color:#FFFFFF;stop-opacity:0.091"
           offset="0.0896" /><stop
           id="stop4481"
           style="stop-color:#FFFFFF;stop-opacity:0"
           offset="1" /></radialGradient><path
         inkscape:connector-curvature="0"
         style="fill:url(#SVGID_8_)"
         id="path4483"
         d="M 64.399,42.11 47.112,13.327 c -0.956,-1.589 -3.256,-2.894 -5.108,-2.894 l -7.82,0 -7.24,0 c -1.858,0 -2.597,1.305 -1.641,2.894 L 42.591,42.11 c 0.955,1.588 0.955,4.191 0,5.786 L 25.19,76.99 c -0.672,1.437 0.026,2.576 1.753,2.576 l 7.236,0 7.824,0 c 1.853,0 4.152,-1.299 5.108,-2.894 l 13.461,-22.401 3.826,-6.375 c 0.957,-1.594 0.957,-4.198 0.001,-5.786 z" /></g></g></svg>